<svg xmlns:svg="http://www.w3.org/2000/svg" xmlns="http://www.w3.org/2000/svg" viewBox="0 0 160 64" version="1.0" width="160" height="64" xml:space="preserve"><path d="m 130.3 44.23 c -0.04 0 -0.08 -0.02 -0.1 -0.02 -0.04 0 -0.08 0 -0.14 0 -0.16 0 -0.32 0.04 -0.5 0.12 -0.18 0.08 -0.38 0.22 -0.61 0.44 v -0.57 h -0.65 v 3.8 h 0.65 v -2.71 c 0.16 -0.14 0.32 -0.26 0.48 -0.34 0.16 -0.08 0.34 -0.12 0.5 -0.12 0.08 0 0.14 0 0.2 0 0.06 0 0.1 0.02 0.14 0.02 h 0.04 l -0.02 -0.63 0 0 z m -5.31 1.45 c 0.02 -0.16 0.04 -0.3 0.1 -0.42 0.04 -0.12 0.12 -0.22 0.22 -0.32 0.1 -0.1 0.2 -0.16 0.32 -0.22 0.12 -0.06 0.26 -0.08 0.42 -0.08 0.18 0 0.32 0.02 0.44 0.08 0.12 0.04 0.22 0.12 0.28 0.22 0.06 0.08 0.12 0.2 0.16 0.32 0.04 0.12 0.06 0.28 0.06 0.44 h -2.02 l 0 -0.02 z m 1.64 2.38 c 0.1 -0.02 0.22 -0.04 0.34 -0.08 0.08 -0.02 0.18 -0.06 0.3 -0.1 0.12 -0.04 0.2 -0.08 0.28 -0.1 v -0.71 h -0.04 c -0.06 0.04 -0.12 0.08 -0.2 0.14 -0.08 0.04 -0.18 0.1 -0.3 0.16 -0.1 0.04 -0.22 0.08 -0.36 0.12 -0.14 0.04 -0.28 0.04 -0.4 0.04 -0.38 0 -0.71 -0.12 -0.93 -0.34 -0.22 -0.24 -0.34 -0.57 -0.34 -1.01 h 2.65 v -0.34 c 0 -0.3 -0.04 -0.57 -0.1 -0.77 -0.08 -0.2 -0.18 -0.38 -0.32 -0.52 -0.14 -0.14 -0.3 -0.24 -0.48 -0.32 -0.18 -0.06 -0.38 -0.1 -0.63 -0.1 -0.52 0 -0.95 0.18 -1.27 0.55 -0.32 0.36 -0.48 0.87 -0.48 1.47 0 0.63 0.16 1.11 0.5 1.45 0.34 0.34 0.81 0.5 1.41 0.5 0.16 0 0.28 -0.02 0.38 -0.04 z m -3.27 -3.86 -0.63 2.95 -0.93 -2.95 h -0.52 l -0.91 2.95 -0.67 -2.95 h -0.67 l 0.97 3.8 h 0.59 l 0.93 -2.93 0.93 2.93 h 0.59 l 0.97 -3.8 h -0.65 z m -5.57 2.99 c -0.18 0.24 -0.44 0.36 -0.77 0.36 -0.34 0 -0.59 -0.12 -0.77 -0.36 -0.18 -0.24 -0.26 -0.61 -0.26 -1.09 0 -0.48 0.08 -0.87 0.26 -1.09 0.18 -0.24 0.44 -0.36 0.77 -0.36 0.32 0 0.59 0.12 0.77 0.36 0.18 0.24 0.26 0.61 0.26 1.09 0.02 0.48 -0.08 0.85 -0.26 1.09 z m 0.46 -2.56 c -0.3 -0.34 -0.73 -0.52 -1.23 -0.52 -0.5 0 -0.93 0.18 -1.23 0.52 -0.3 0.34 -0.46 0.85 -0.46 1.47 0 0.63 0.14 1.11 0.44 1.47 0.3 0.36 0.73 0.55 1.25 0.55 0.5 0 0.93 -0.18 1.23 -0.52 0.3 -0.34 0.46 -0.85 0.46 -1.47 0 -0.65 -0.14 -1.15 -0.46 -1.49 z m -4.28 2.5 c -0.18 0.24 -0.44 0.36 -0.77 0.36 -0.16 0 -0.28 -0.02 -0.4 -0.04 -0.12 -0.02 -0.26 -0.08 -0.42 -0.16 v -2.16 c 0.16 -0.12 0.3 -0.22 0.48 -0.3 0.16 -0.08 0.34 -0.12 0.53 -0.12 0.3 0 0.55 0.12 0.67 0.36 0.14 0.24 0.2 0.59 0.2 1.01 0 0.46 -0.1 0.81 -0.28 1.05 z m 0.57 -2.52 c -0.24 -0.34 -0.59 -0.52 -1.01 -0.52 -0.22 0 -0.44 0.04 -0.63 0.14 -0.2 0.1 -0.36 0.22 -0.53 0.36 v -0.4 h -0.65 v 5.21 h 0.65 v -1.6 c 0.16 0.08 0.3 0.16 0.44 0.2 0.14 0.04 0.3 0.06 0.5 0.06 0.46 0 0.85 -0.18 1.15 -0.57 0.3 -0.38 0.46 -0.89 0.46 -1.51 -0.02 -0.57 -0.14 -1.03 -0.4 -1.37 z m -3.74 3.39 v -2.5 c 0 -0.26 -0.02 -0.48 -0.08 -0.65 -0.06 -0.18 -0.14 -0.32 -0.24 -0.42 -0.1 -0.12 -0.22 -0.2 -0.34 -0.24 -0.14 -0.06 -0.28 -0.08 -0.44 -0.08 -0.22 0 -0.42 0.06 -0.61 0.16 -0.18 0.12 -0.36 0.28 -0.57 0.48 -0.1 -0.24 -0.22 -0.4 -0.4 -0.5 -0.18 -0.1 -0.36 -0.16 -0.61 -0.16 -0.2 0 -0.38 0.04 -0.55 0.14 -0.16 0.1 -0.32 0.22 -0.5 0.38 v -0.42 h -0.65 v 3.8 h 0.65 V 45.13 c 0.14 -0.14 0.28 -0.24 0.44 -0.32 0.16 -0.08 0.3 -0.12 0.44 -0.12 0.14 0 0.26 0.02 0.34 0.06 0.08 0.04 0.14 0.1 0.2 0.2 0.04 0.08 0.08 0.2 0.08 0.34 0.02 0.14 0.02 0.3 0.02 0.48 v 2.2 h 0.65 v -2.48 c 0 -0.08 0 -0.14 0 -0.18 0 -0.06 0 -0.1 0 -0.14 0.16 -0.16 0.32 -0.26 0.46 -0.34 0.14 -0.08 0.28 -0.12 0.42 -0.12 0.14 0 0.26 0.02 0.34 0.06 0.08 0.04 0.14 0.1 0.2 0.2 0.04 0.08 0.08 0.2 0.08 0.34 0.02 0.14 0.02 0.3 0.02 0.48 v 2.2 l 0.63 0 0 0 z m -8.26 -2.32 c 0.02 -0.16 0.04 -0.3 0.1 -0.42 0.04 -0.12 0.12 -0.22 0.22 -0.32 0.1 -0.1 0.2 -0.16 0.32 -0.22 0.12 -0.06 0.26 -0.08 0.44 -0.08 0.18 0 0.32 0.02 0.42 0.08 0.12 0.04 0.22 0.12 0.28 0.22 0.06 0.08 0.12 0.2 0.16 0.32 0.04 0.12 0.06 0.28 0.06 0.44 h -2.02 l 0 -0.02 z m 1.64 2.38 c 0.1 -0.02 0.22 -0.04 0.34 -0.08 0.08 -0.02 0.18 -0.06 0.3 -0.1 0.12 -0.04 0.2 -0.08 0.28 -0.1 v -0.71 h -0.04 c -0.06 0.04 -0.12 0.08 -0.2 0.14 -0.08 0.04 -0.18 0.1 -0.28 0.16 -0.1 0.04 -0.22 0.08 -0.36 0.12 -0.14 0.04 -0.28 0.04 -0.4 0.04 -0.38 0 -0.71 -0.12 -0.93 -0.34 C 102.66 46.95 102.54 46.63 102.54 46.18 h 2.62 v -0.34 c 0 -0.3 -0.04 -0.57 -0.1 -0.77 -0.08 -0.2 -0.18 -0.38 -0.32 -0.52 -0.14 -0.14 -0.3 -0.24 -0.48 -0.32 -0.18 -0.06 -0.38 -0.1 -0.63 -0.1 -0.52 0 -0.95 0.18 -1.27 0.55 -0.32 0.36 -0.48 0.87 -0.48 1.47 0 0.63 0.16 1.11 0.5 1.45 0.34 0.34 0.81 0.5 1.41 0.5 0.16 0 0.3 -0.02 0.38 -0.04 z m -5.09 0 c 0.12 -0.02 0.24 -0.04 0.36 -0.08 v -0.57 h -0.04 c -0.04 0.02 -0.12 0.04 -0.2 0.08 -0.1 0.04 -0.2 0.04 -0.3 0.04 -0.14 0 -0.26 -0.02 -0.34 -0.06 -0.08 -0.04 -0.14 -0.1 -0.18 -0.18 -0.04 -0.1 -0.08 -0.18 -0.08 -0.28 0 -0.1 0 -0.26 0 -0.44 v -1.82 h 1.17 V 44.23 h -1.17 v -1.09 h -0.65 v 1.09 h -0.44 v 0.52 h 0.42 v 2.1 c 0 0.42 0.1 0.75 0.28 0.95 0.2 0.2 0.46 0.3 0.81 0.3 0.12 -0.02 0.24 -0.04 0.36 -0.04 z m -3.51 -0.67 c -0.16 0.08 -0.34 0.12 -0.55 0.12 -0.24 0 -0.42 -0.06 -0.55 -0.16 -0.12 -0.12 -0.18 -0.28 -0.18 -0.48 0 -0.2 0.06 -0.34 0.16 -0.44 0.12 -0.1 0.24 -0.18 0.42 -0.24 0.14 -0.04 0.32 -0.08 0.57 -0.1 0.24 -0.02 0.42 -0.04 0.59 -0.06 v 1.05 c -0.14 0.12 -0.28 0.24 -0.46 0.32 z m 0.46 0.61 h 0.65 v -2.6 c 0 -0.24 -0.04 -0.44 -0.1 -0.61 -0.06 -0.16 -0.16 -0.3 -0.3 -0.4 -0.14 -0.1 -0.3 -0.18 -0.48 -0.22 -0.18 -0.04 -0.4 -0.06 -0.67 -0.06 -0.22 0 -0.42 0.02 -0.65 0.06 -0.22 0.04 -0.38 0.08 -0.5 0.12 v 0.65 h 0.04 c 0.2 -0.08 0.4 -0.14 0.61 -0.2 0.2 -0.04 0.36 -0.06 0.52 -0.06 0.12 0 0.24 0 0.36 0.02 0.12 0.02 0.22 0.06 0.3 0.1 0.08 0.04 0.14 0.12 0.18 0.22 0.04 0.1 0.06 0.22 0.06 0.36 v 0.12 c -0.34 0.02 -0.65 0.04 -0.95 0.08 -0.28 0.04 -0.55 0.1 -0.75 0.2 -0.24 0.1 -0.42 0.26 -0.52 0.44 -0.12 0.18 -0.16 0.4 -0.16 0.67 0 0.16 0.04 0.32 0.1 0.48 0.06 0.16 0.14 0.28 0.24 0.38 0.1 0.1 0.22 0.18 0.36 0.24 0.14 0.06 0.28 0.08 0.44 0.08 0.18 0 0.34 -0.02 0.44 -0.04 0.1 -0.04 0.22 -0.08 0.32 -0.14 0.08 -0.04 0.16 -0.1 0.26 -0.16 0.08 -0.06 0.16 -0.12 0.2 -0.16 l -0.02 0.42 0 0 z m -3.05 -2.46 c 0 -0.46 -0.1 -0.83 -0.32 -1.07 -0.2 -0.24 -0.5 -0.36 -0.89 -0.36 -0.2 0 -0.4 0.04 -0.59 0.14 -0.18 0.08 -0.38 0.22 -0.57 0.38 v -1.92 h -0.65 v 5.29 h 0.65 v -2.85 c 0.16 -0.14 0.32 -0.24 0.5 -0.32 0.16 -0.08 0.32 -0.12 0.48 -0.12 0.16 0 0.28 0.02 0.38 0.06 0.1 0.04 0.16 0.12 0.22 0.22 0.04 0.08 0.08 0.2 0.1 0.36 0.02 0.14 0.02 0.32 0.02 0.48 v 2.16 h 0.65 v -2.46 z m -3.84 2.52 c 0.12 -0.02 0.24 -0.04 0.36 -0.08 v -0.57 h -0.04 c -0.04 0.02 -0.12 0.04 -0.2 0.08 -0.1 0.04 -0.2 0.04 -0.3 0.04 -0.14 0 -0.26 -0.02 -0.34 -0.06 -0.08 -0.04 -0.14 -0.1 -0.18 -0.18 -0.04 -0.1 -0.08 -0.18 -0.08 -0.28 0 -0.1 -0.02 -0.26 -0.02 -0.44 v -1.82 h 1.17 V 44.23 h -1.17 v -1.09 h -0.65 v 1.09 h -0.42 v 0.52 h 0.42 v 2.1 c 0 0.42 0.1 0.75 0.28 0.95 0.2 0.2 0.46 0.3 0.81 0.3 0.12 -0.02 0.24 -0.04 0.36 -0.04 z m -5.15 -0.06 c 0.16 -0.06 0.32 -0.14 0.46 -0.26 0.12 -0.1 0.22 -0.22 0.28 -0.38 0.06 -0.14 0.1 -0.3 0.1 -0.46 0 -0.28 -0.08 -0.5 -0.22 -0.67 -0.14 -0.16 -0.36 -0.28 -0.63 -0.34 -0.12 -0.04 -0.26 -0.06 -0.36 -0.08 -0.12 -0.02 -0.22 -0.04 -0.32 -0.08 -0.18 -0.04 -0.32 -0.12 -0.42 -0.2 -0.08 -0.08 -0.12 -0.2 -0.12 -0.36 0 -0.18 0.08 -0.3 0.22 -0.4 0.14 -0.08 0.32 -0.14 0.52 -0.14 0.2 0 0.4 0.04 0.61 0.12 0.2 0.08 0.38 0.18 0.55 0.3 h 0.04 v -0.69 c -0.14 -0.08 -0.32 -0.14 -0.55 -0.2 -0.22 -0.06 -0.42 -0.08 -0.65 -0.08 -0.42 0 -0.77 0.1 -1.03 0.32 -0.26 0.22 -0.38 0.5 -0.38 0.83 0 0.24 0.06 0.46 0.2 0.65 0.14 0.18 0.34 0.3 0.63 0.38 0.1 0.04 0.24 0.06 0.36 0.08 0.14 0.02 0.24 0.06 0.32 0.08 0.2 0.06 0.36 0.12 0.44 0.2 0.08 0.08 0.12 0.2 0.12 0.34 0 0.12 -0.02 0.2 -0.06 0.26 -0.04 0.06 -0.1 0.12 -0.18 0.16 -0.06 0.04 -0.14 0.06 -0.26 0.08 -0.12 0.02 -0.22 0.04 -0.32 0.04 -0.14 0 -0.28 -0.02 -0.4 -0.06 -0.12 -0.04 -0.24 -0.08 -0.36 -0.14 -0.12 -0.06 -0.22 -0.1 -0.3 -0.16 -0.08 -0.06 -0.14 -0.1 -0.2 -0.14 h -0.04 v 0.73 c 0.14 0.08 0.32 0.14 0.55 0.22 0.22 0.06 0.46 0.1 0.71 0.1 0.32 0.06 0.52 0.02 0.71 -0.04 z m -2.6 -2.46 c 0 -0.46 -0.1 -0.83 -0.32 -1.07 -0.2 -0.24 -0.5 -0.36 -0.87 -0.36 -0.2 0 -0.4 0.04 -0.59 0.14 -0.18 0.08 -0.38 0.22 -0.57 0.38 v -0.42 h -0.65 v 3.8 h 0.65 v -2.85 c 0.16 -0.14 0.32 -0.24 0.5 -0.32 0.16 -0.08 0.34 -0.12 0.48 -0.12 0.16 0 0.28 0.02 0.38 0.06 0.1 0.04 0.16 0.12 0.22 0.22 0.04 0.08 0.08 0.2 0.1 0.36 0.02 0.14 0.02 0.32 0.02 0.48 v 2.16 h 0.65 l -0.02 -2.46 0 0 z m -4.58 1.66 c -0.18 0.24 -0.44 0.36 -0.77 0.36 -0.34 0 -0.59 -0.12 -0.77 -0.36 -0.18 -0.24 -0.26 -0.61 -0.26 -1.09 0 -0.48 0.08 -0.87 0.26 -1.09 0.18 -0.24 0.44 -0.36 0.77 -0.36 0.32 0 0.59 0.12 0.77 0.36 0.18 0.24 0.26 0.61 0.26 1.09 0 0.48 -0.1 0.85 -0.26 1.09 z m 0.46 -2.56 c -0.3 -0.34 -0.73 -0.52 -1.23 -0.52 -0.5 0 -0.93 0.18 -1.23 0.52 -0.3 0.34 -0.46 0.85 -0.46 1.47 0 0.63 0.14 1.11 0.44 1.47 0.3 0.36 0.73 0.55 1.25 0.55 0.5 0 0.93 -0.18 1.23 -0.52 0.3 -0.34 0.46 -0.85 0.46 -1.47 0 -0.65 -0.16 -1.15 -0.46 -1.49 z m -3.63 -0.42 h -0.65 v 3.8 h 0.65 v -3.8 z m 0.04 -1.29 h -0.73 v 0.67 h 0.73 v -0.67 z m -1.55 5.15 c 0.12 -0.02 0.24 -0.04 0.36 -0.08 V 47.42 h -0.04 c -0.04 0.02 -0.12 0.04 -0.2 0.08 -0.1 0.04 -0.2 0.04 -0.3 0.04 -0.14 0 -0.26 -0.02 -0.34 -0.06 -0.08 -0.04 -0.14 -0.1 -0.18 -0.18 -0.04 -0.1 -0.08 -0.18 -0.08 -0.28 0 -0.1 -0.02 -0.26 -0.02 -0.44 v -1.82 h 1.17 V 44.23 H 71.32 v -1.09 h -0.65 v 1.09 h -0.42 v 0.52 h 0.42 v 2.1 c 0 0.42 0.1 0.75 0.28 0.95 0.2 0.2 0.46 0.3 0.81 0.3 0.12 -0.02 0.24 -0.04 0.36 -0.04 z m -2.44 -3.86 h -0.65 v 2.85 c -0.14 0.12 -0.3 0.24 -0.48 0.32 -0.18 0.08 -0.34 0.14 -0.5 0.14 -0.16 0 -0.3 -0.02 -0.38 -0.06 -0.08 -0.04 -0.16 -0.12 -0.22 -0.22 -0.06 -0.1 -0.08 -0.22 -0.1 -0.34 -0.02 -0.14 -0.02 -0.3 -0.02 -0.5 V 44.23 H 66.68 V 46.69 c 0 0.26 0.02 0.46 0.08 0.65 0.06 0.18 0.14 0.32 0.26 0.44 0.1 0.12 0.24 0.2 0.38 0.26 0.14 0.06 0.3 0.08 0.46 0.08 0.22 0 0.42 -0.04 0.59 -0.14 0.18 -0.08 0.36 -0.22 0.57 -0.38 v 0.42 h 0.65 l 0.02 -3.82 0 0 z m -3.92 -1.49 H 65.12 v 5.29 h 0.65 v -5.29 z m -2.26 4.48 c -0.18 0.24 -0.44 0.36 -0.77 0.36 -0.34 0 -0.59 -0.12 -0.77 -0.36 -0.18 -0.24 -0.26 -0.61 -0.26 -1.09 0 -0.48 0.08 -0.87 0.26 -1.09 0.18 -0.24 0.44 -0.36 0.77 -0.36 0.32 0 0.59 0.12 0.77 0.36 0.18 0.24 0.26 0.61 0.26 1.09 0 0.48 -0.08 0.85 -0.26 1.09 z m 0.46 -2.56 c -0.3 -0.34 -0.73 -0.52 -1.23 -0.52 -0.5 0 -0.93 0.18 -1.23 0.52 -0.3 0.34 -0.46 0.85 -0.46 1.47 0 0.63 0.16 1.11 0.46 1.47 0.3 0.36 0.73 0.55 1.25 0.55 0.5 0 0.93 -0.18 1.23 -0.52 0.3 -0.34 0.46 -0.85 0.46 -1.47 -0.02 -0.65 -0.18 -1.15 -0.48 -1.49 z m -4.34 3.35 c 0.2 -0.08 0.38 -0.2 0.55 -0.34 0.14 -0.14 0.26 -0.3 0.34 -0.48 0.08 -0.2 0.12 -0.38 0.12 -0.59 0 -0.32 -0.08 -0.59 -0.24 -0.79 -0.16 -0.22 -0.42 -0.38 -0.77 -0.48 -0.14 -0.04 -0.3 -0.08 -0.5 -0.14 -0.2 -0.04 -0.38 -0.1 -0.52 -0.12 -0.22 -0.06 -0.38 -0.16 -0.48 -0.28 -0.12 -0.12 -0.16 -0.3 -0.16 -0.5 0 -0.24 0.1 -0.42 0.28 -0.59 0.2 -0.14 0.44 -0.22 0.77 -0.22 0.28 0 0.55 0.06 0.79 0.16 0.24 0.1 0.46 0.24 0.63 0.38 h 0.06 v -0.81 c -0.22 -0.1 -0.44 -0.18 -0.71 -0.24 -0.26 -0.06 -0.52 -0.08 -0.81 -0.08 -0.5 0 -0.91 0.14 -1.23 0.42 -0.32 0.28 -0.48 0.63 -0.48 1.03 0 0.2 0.02 0.36 0.08 0.52 0.06 0.14 0.14 0.28 0.24 0.38 0.1 0.12 0.22 0.2 0.36 0.28 0.14 0.06 0.3 0.12 0.46 0.18 0.2 0.04 0.36 0.08 0.48 0.12 0.12 0.02 0.26 0.06 0.42 0.12 0.22 0.06 0.38 0.16 0.48 0.28 0.1 0.12 0.14 0.28 0.14 0.48 0 0.26 -0.1 0.46 -0.28 0.61 -0.18 0.16 -0.46 0.24 -0.85 0.24 -0.26 0 -0.52 -0.06 -0.81 -0.18 -0.28 -0.12 -0.52 -0.28 -0.75 -0.48 h -0.04 v 0.85 c 0.22 0.1 0.46 0.2 0.73 0.28 0.26 0.08 0.57 0.12 0.93 0.12 0.3 -0.02 0.57 -0.06 0.77 -0.14 z m 65.1 -8.74 h 1.66 v -4.87 l 4.52 -6.76 h -1.94 l -3.37 5.21 -3.45 -5.21 h -1.94 l 4.54 6.76 v 4.87 z m -6.28 -4.3 h -4.62 l 2.32 -5.75 2.3 5.75 z m -8.1 4.3 h 1.76 l 1.17 -2.93 h 5.69 l 1.17 2.93 h 1.82 L 117.06 27.61 h -1.76 l -4.95 11.63 z m -11.13 0 h 2.22 l 2.54 -10.16 h 0.04 l 2.52 10.16 h 2.14 l 3.57 -11.63 h -1.76 l -2.79 9.95 h -0.02 l -2.52 -9.95 h -2.36 l -2.48 9.95 h -0.04 L 97.51 27.61 h -1.84 l 3.55 11.63 z m -11.25 0 h 6.5 v -1.47 h -4.85 v -3.84 h 4.4 v -1.47 h -4.4 v -3.39 h 4.85 v -1.47 h -6.5 l 0 11.65 0 0 z m -7.01 0 H 82.63 V 29.08 h 3.61 V 27.61 h -8.88 v 1.47 h 3.61 l 0 10.16 0 0 z m -5.55 -4.3 h -4.62 l 2.32 -5.75 2.3 5.75 z m -8.1 4.3 h 1.76 L 70.27 36.31 h 5.69 l 1.19 2.93 h 1.82 L 74.07 27.61 H 72.31 L 67.33 39.24 z M 66.28 27.99 c -0.97 -0.32 -1.72 -0.59 -3.41 -0.59 -3.55 0 -6.14 2.38 -6.14 5.96 0 3.7 2.44 6.06 6.12 6.06 1.82 0 2.91 -0.3 3.55 -0.52 v -6.04 h -4.12 v 1.37 h 2.44 v 3.53 c -0.42 0.08 -0.71 0.2 -1.86 0.2 -2.42 0 -4.38 -1.82 -4.38 -4.54 0 -2.6 1.78 -4.54 4.46 -4.54 1.49 0 2.38 0.26 3.19 0.81 l 0.14 -1.7 z M 127.4 25.33 h 1.13 v -6.91 h 2.46 v -0.99 h -6.06 v 0.99 h 2.46 v 6.91 z m -9.45 0 h 1.13 v -6.5 h 0.02 l 3.57 6.5 h 1.45 V 17.41 h -1.13 v 6.36 h -0.02 l -3.49 -6.36 h -1.53 v 7.92 l 0 0 z m -5.71 0 h 4.42 v -0.99 h -3.29 v -2.6 h 3.01 v -0.99 h -3.01 v -2.3 h 3.29 v -0.99 h -4.42 v 7.87 z m -10.04 0 h 1.13 v -6.85 h 0.02 l 2.62 6.85 h 1.11 l 2.62 -6.85 h 0.02 v 6.85 h 1.13 V 17.41 h -1.88 l -2.44 6.56 -2.46 -6.56 h -1.88 l 0 7.92 0 0 z m -4.81 -6.91 h 0.97 c 0.71 0 1.74 0.36 1.74 1.35 0 1.05 -0.89 1.39 -1.6 1.39 h -1.13 l 0.02 -2.75 0 0 z m -1.13 6.91 h 1.13 v -3.17 h 1.11 c 1.43 0 2.81 -0.63 2.81 -2.38 0 -1.8 -1.35 -2.36 -2.97 -2.36 h -2.08 l 0 7.92 0 0 z m -7.49 -3.96 c 0 -1.62 0.87 -3.11 2.6 -3.09 1.74 -0.02 2.6 1.47 2.6 3.09 0 1.57 -0.79 3.09 -2.6 3.09 -1.82 0 -2.6 -1.51 -2.6 -3.09 z m -1.19 0 c 0 2.4 1.39 4.1 3.82 4.1 2.4 0 3.82 -1.7 3.82 -4.1 0 -2.34 -1.41 -4.1 -3.82 -4.1 -2.42 0 -3.82 1.76 -3.82 4.1 z m -4.64 3.96 h 4.44 v -0.99 h -3.31 v -6.91 h -1.13 l 0 7.9 0 0 z m -5.69 0 h 4.42 v -0.99 h -3.29 v -2.6 h 3.01 v -0.99 h -3.01 v -2.3 h 3.29 v -0.99 h -4.42 v 7.87 z M 76.57 17.41 h -1.19 l -2.5 6.91 h -0.02 L 70.41 17.41 h -1.27 l 2.99 7.92 h 1.41 l 3.03 -7.92 z m -12.54 7.92 h 4.42 v -0.99 h -3.29 v -2.6 h 3.01 v -0.99 h -3.01 v -2.3 h 3.29 v -0.99 h -4.42 v 7.87 z m -6.14 -6.91 h 1.33 c 1.64 0 2.89 1.09 2.89 2.93 0 2.04 -1.07 2.99 -3.03 2.99 h -1.19 l 0 -5.92 0 0 z m -1.13 6.91 h 2.34 c 2.6 0 4.22 -1.37 4.22 -4.02 0 -2.44 -1.88 -3.88 -4.22 -3.88 h -2.34 v 7.9 z M 16.22 28.98 C 15.55 28.46 14.72 28.13 13.84 28.13 11.72 28.13 10 29.85 10 31.97 c 0 2.12 1.72 3.84 3.84 3.84 1.39 0 2.6 -0.75 3.27 -1.86 0 0 0 0 0 0 3.33 8.74 15.08 12.44 20.29 4.46 1.92 -4.62 -0.44 -7.15 -1.92 -8.28 0.44 0.95 0.44 1.57 0.26 2.62 -2.16 13.25 -23.32 3.7 -12.12 -12.12 0.87 -1.39 1.09 -2.34 0.14 -3.29 -0.95 -0.95 -2.42 -0.71 -3.21 0.26 -3.07 4.06 -4.32 7.94 -4.34 11.37 z m 12.42 18.72 c -0.55 0.65 -0.89 1.45 -0.91 2.36 -0.06 2.12 1.62 3.88 3.74 3.94 2.12 0.06 3.88 -1.62 3.94 -3.74 0.04 -1.39 -0.67 -2.62 -1.78 -3.33 l 0 0 c 8.82 -3.09 12.84 -14.76 4.99 -20.15 -4.56 -2.04 -7.15 0.24 -8.32 1.7 0.97 -0.4 1.57 -0.4 2.62 -0.2 13.19 2.52 3.09 23.4 -12.44 11.79 -1.37 -0.91 -2.3 -1.15 -3.29 -0.24 -0.97 0.93 -0.77 2.4 0.18 3.23 4 3.19 7.81 4.54 11.27 4.64 z M 47.82 35.1 c 0.65 0.52 1.49 0.85 2.38 0.85 2.12 0 3.84 -1.72 3.84 -3.84 0 -2.12 -1.72 -3.84 -3.84 -3.84 -1.39 0 -2.6 0.75 -3.27 1.86 l 0 0 C 43.62 21.39 31.85 17.69 26.64 25.67 c -1.92 4.62 0.44 7.15 1.92 8.28 -0.44 -0.97 -0.44 -1.57 -0.26 -2.62 2.18 -13.25 23.32 -3.7 12.12 12.12 -0.87 1.39 -1.09 2.34 -0.14 3.29 0.95 0.95 2.42 0.71 3.21 -0.26 3.05 -4.06 4.3 -7.92 4.34 -11.37 z M 46.26 20.56 c 0.97 0.79 1.21 2.26 0.26 3.21 -0.95 0.95 -1.9 0.73 -3.29 -0.14 -15.81 -11.21 -25.36 9.95 -12.12 12.12 1.05 0.18 1.66 0.18 2.6 -0.26 -1.13 1.47 -3.65 3.84 -8.28 1.92 -7.98 -5.21 -4.28 -16.96 4.46 -20.29 l 0 0 c -1.11 -0.67 -1.86 -1.88 -1.86 -3.27 0 -2.12 1.72 -3.84 3.84 -3.84 2.12 0 3.84 1.72 3.84 3.84 0 0.91 -0.32 1.74 -0.85 2.38 3.45 0.04 7.33 1.29 11.39 4.34 z" style="fill:#ffffff"/>
</svg>
