<svg version="1.1" id="eprocurement" xmlns="http://www.w3.org/2000/svg" xmlns:xlink="http://www.w3.org/1999/xlink" viewBox="0 0 125 125">
<style type="text/css">
	.st0{fill:#FFFFFF;}
</style>
<g>
	<path class="st0" d="M105.2,26.8h-72L20,38.4v46.1h85.3V26.8z M83,69.9H42.2c-1.4,0-2.4-1.1-2.4-2.4s1.1-2.4,2.4-2.4H83
		c1.4,0,2.4,1.1,2.4,2.4S84.4,69.9,83,69.9z M83,59.3H42.2c-1.4,0-2.4-1.1-2.4-2.4s1.1-2.4,2.4-2.4H83c1.4,0,2.4,1.1,2.4,2.4
		S84.4,59.3,83,59.3z M83,48.7H42.2c-1.4,0-2.4-1.1-2.4-2.4c0-1.4,1.1-2.4,2.4-2.4H83c1.4,0,2.4,1.1,2.4,2.4
		C85.4,47.6,84.4,48.7,83,48.7z"/>
	<path class="st0" d="M109.2,17.7H16.3c-3,0-5.4,2.4-5.4,5.4V88c0,3,2.4,5.4,5.4,5.4h29.2c0,1.2,0,3.2,0,6.5c0,4.5-11,4.5-11,4.5
		v3.2l27.7,0.2h0.2h0.2l27.7-0.2v-3.3c0,0-11,0-11-4.5c0-3.3,0-5.3,0-6.5h30.1c3,0,5.4-2.4,5.4-5.4V23.1
		C114.6,20.1,112.2,17.7,109.2,17.7z M110.1,89.1H15.4v-67h94.6V89.1z"/>
</g>
</svg>
