<?xml version="1.0" encoding="UTF-8" standalone="no"?><svg xmlns="http://www.w3.org/2000/svg" xmlns:xlink="http://www.w3.org/1999/xlink" version="1.1" width="800" height="800"><defs><g id="leaf"><path transform="translate(-400, -250)" d="M 400,230 C 318,240 210,250 155,260 100,270 105,289 110,321 120,358 156,381 190,391 272,408 355,378 430,346 503,314 573,274 640,231 555,217 478,224 400,231 Z M 90,151 C 112,107 182,54 250,46 378,29 510,68 615,141 667,176 711,215 760,256 675,266 621,317 540,364 460,410 354,456 250,458 177,459 101,431 56,371 26,331 45,266 56,231 67,196 68,195 90,151 Z"/></g></defs><use xlink:href="#leaf" x="0" y="0" transform="translate(400, 400) rotate(315)" fill="#4996f1"/></svg>