<?xml version="1.0" standalone="no"?>
<!DOCTYPE svg PUBLIC "-//W3C//DTD SVG 20010904//EN"
 "http://www.w3.org/TR/2001/REC-SVG-20010904/DTD/svg10.dtd">
<svg version="1.0" xmlns="http://www.w3.org/2000/svg"
 width="700.000000pt" height="700.000000pt" viewBox="0 0 700.000000 700.000000"
 preserveAspectRatio="xMidYMid meet">
<metadata>
Created by potrace 1.11, written by Peter Selinger 2001-2013
</metadata>
<g transform="translate(0.000000,700.000000) scale(0.100000,-0.100000)"
fill="#000000" stroke="none">
<path d="M5625 5678 c-44 -4 -113 -9 -154 -12 -41 -3 -93 -8 -115 -11 -37 -4
-67 -7 -236 -21 -81 -6 -212 -20 -280 -29 -19 -3 -57 -7 -85 -10 -79 -8 -236
-29 -305 -40 -14 -2 -41 -6 -60 -9 -40 -7 -75 -13 -145 -26 -27 -5 -63 -11
-80 -14 -16 -2 -66 -12 -110 -21 -44 -9 -91 -19 -105 -21 -75 -14 -320 -84
-500 -144 -389 -129 -780 -318 -1115 -538 -70 -46 -286 -201 -295 -212 -3 -3
-32 -28 -65 -54 -237 -190 -493 -456 -687 -711 -38 -51 -158 -247 -158 -260 0
-2 -15 -36 -34 -77 -115 -249 -179 -556 -179 -853 0 -142 8 -269 19 -286 2 -3
6 -21 9 -40 9 -53 128 -412 160 -484 7 -16 21 -50 31 -75 17 -42 93 -195 171
-340 118 -219 237 -385 367 -515 167 -166 317 -241 517 -260 570 -55 1182 185
1639 645 123 123 224 243 336 395 75 103 214 310 214 319 0 2 17 33 38 67 113
187 255 483 374 779 60 150 200 550 213 606 2 11 13 51 25 89 31 103 102 390
155 630 155 706 209 891 335 1149 77 157 99 194 228 376 16 21 17 21 -123 8z
m-812 -805 c-29 -126 -55 -237 -57 -248 -3 -11 -16 -65 -31 -120 -15 -55 -28
-107 -30 -115 -73 -307 -340 -1134 -430 -1335 -7 -16 -22 -53 -33 -81 -85
-216 -250 -557 -365 -754 -76 -131 -207 -333 -226 -350 -4 -3 -33 -39 -66 -80
-120 -151 -296 -317 -448 -424 -163 -114 -439 -197 -634 -190 -176 6 -289 45
-418 142 -174 132 -211 224 -153 381 24 62 107 202 180 301 26 36 69 94 95
130 53 70 257 334 302 390 16 19 58 73 95 120 36 47 89 114 118 150 64 79 43
53 199 250 72 91 138 174 147 185 10 11 76 94 147 184 72 91 146 181 166 200
19 20 84 95 144 166 61 72 114 135 120 141 5 6 28 32 50 59 121 146 315 356
484 525 224 222 371 353 541 482 41 32 80 61 85 65 26 21 68 53 69 53 1 0 -22
-102 -51 -227z"/>
</g>
</svg>
