<svg version="1.1" id="compare" xmlns="http://www.w3.org/2000/svg" xmlns:xlink="http://www.w3.org/1999/xlink" viewBox="0 0 250 250">
<style type="text/css">
	.st0{fill:#FFFFFF;}
</style>
<path class="st0" d="M209.9,6.6h-42.8c-18,0-32.7,14.6-32.7,32.7v77.1h75.5c18,0,32.7-14.6,32.7-32.7V39.2
	C242.6,21.2,228,6.6,209.9,6.6z M218.1,73.6c0,9.8-8,17.8-17.8,17.8h-41.2V49.3c0-9.9,8-17.8,17.8-17.8h23.4c9.9,0,17.8,8,17.8,17.8
	V73.6z M82.5,6.6H39.7C21.7,6.6,7,21.2,7,39.3v44.4c0,18,14.6,32.7,32.7,32.7h75.5V39.3C115.2,21.2,100.6,6.6,82.5,6.6z M49.4,91.4
	c-9.8,0-17.8-8-17.8-17.8V49.3c0-9.9,8-17.8,17.8-17.8h23.4c9.8,0,17.8,8,17.8,17.8v42.1L49.4,91.4z M7.1,167v44.4
	c0,18.1,14.6,32.7,32.7,32.7h42.8c18,0,32.7-14.6,32.7-32.7v-77.1H39.8C21.7,134.3,7.1,149,7.1,167z M90.7,159.3v42.1
	c0,9.9-8,17.8-17.8,17.8H49.4c-9.8,0-17.8-8-17.8-17.8v-24.3c0-9.8,8-17.8,17.8-17.8L90.7,159.3z M209.9,134.3h-75.5v77.1
	c0,18.1,14.6,32.7,32.7,32.7h42.8c18,0,32.7-14.6,32.7-32.7V167C242.6,149,228,134.3,209.9,134.3z M218.1,201.4
	c0,9.9-8,17.8-17.8,17.8h-23.4c-9.9,0-17.8-8-17.8-17.8v-42.1h41.2c9.9,0,17.8,8,17.8,17.8V201.4z"/>
</svg>
