<svg version="1.1" id="efficiency" xmlns="http://www.w3.org/2000/svg" xmlns:xlink="http://www.w3.org/1999/xlink" viewBox="0 0 125 125">
<style type="text/css">
	.st0{fill:#FFFFFF;}
</style>
<polygon class="st0" points="75.4,65.3 76.2,65.7 77.1,66.2 78,66.7 78.8,67.1 79.6,67.7 80.4,68.2 81.1,68.9 81.9,69.4 82.7,70.1
	83.4,70.8 84,71.6 84.7,72.2 85.4,72.9 85.9,73.6 86.6,74.4 87.1,75.2 87.7,76.1 88.1,76.9 88.6,77.7 88.9,78.5 89.4,79.6
	89.8,80.4 90.1,81.4 90.5,82.3 90.6,83.2 91,84.2 91.2,85.3 91.3,86.2 91.4,87.3 91.6,88.4 91.7,89.3 91.7,90.4 91.7,91.7
	91.4,93.1 91.3,94.5 91.2,95.9 90.7,97.2 90.5,98.4 89.9,99.6 89.4,101.1 88.9,102.2 88.3,103.4 87.7,104.6 87,105.7 86.2,106.7
	85.4,107.7 84.4,108.8 83.6,109.7 82.7,110.6 81.6,111.4 80.5,112.3 79.6,113.1 78.4,113.7 77.2,114.4 76.1,115.1 74.9,115.6
	73.7,116 72.4,116.4 71,116.8 69.8,117.1 68.5,117.4 67,117.5 65.6,117.6 64.3,117.6 63,117.6 61.5,117.5 60.1,117.4 58.8,117.1
	57.4,116.8 56.2,116.4 54.9,116 53.7,115.6 52.5,115.1 51.3,114.4 50.1,113.7 49,113.1 47.9,112.3 47,111.4 45.9,110.6 45,109.7
	44,108.8 43.2,107.7 42.4,106.7 41.6,105.7 40.9,104.6 40.3,103.4 39.6,102.2 39,101.1 38.5,99.6 38.1,98.4 37.8,97.2 37.4,95.9
	37.3,94.5 37,93.1 36.9,91.7 36.9,90.4 36.9,89.3 37,88.4 37,87.3 37.3,86.2 37.4,85.3 37.6,84.2 37.8,83.2 38.1,82.3 38.5,81.4
	38.6,80.4 39.2,79.6 39.6,78.5 40,77.7 40.4,76.9 40.9,76.1 41.5,75.2 42,74.4 42.5,73.6 43.2,72.9 43.7,72.2 44.6,71.6 45.2,70.8
	45.9,70.1 46.6,69.4 47.4,68.9 48.2,68.2 49,67.7 49.8,67.1 50.6,66.7 51.4,66.2 52.3,65.7 53.1,65.3 53.1,41.5 38.2,41.5 64.3,5.9
	90.3,41.5 75.4,41.5 "/>
</svg>
