<svg version="1.1" id="overview" xmlns="http://www.w3.org/2000/svg" xmlns:xlink="http://www.w3.org/1999/xlink" viewBox="0 0 122 122">
<style type="text/css">
	.st0{fill:#FFFFFF;}
</style>
<path class="st0" d="M119.1,107.9L91.4,78.7c4.8-7.4,7.5-16.2,7.5-25.6c0-26.3-21.3-47.6-47.6-47.6S3.7,26.8,3.7,53.1
	c0,26.4,21.3,47.8,47.6,47.8c10.3,0,19.7-3.2,27.6-8.8l27.1,28.4c3.5,3.7,9.1,3.8,12.8,0.3C122.5,117.2,122.5,111.4,119.1,107.9z
	 M18.3,53.3c0-18.3,14.7-33,33-33s33,14.7,33,33s-14.7,33-33,33C33,86.1,18.3,71.4,18.3,53.3z"/>
</svg>
